<svg width="237" height="65" viewBox="0 0 237 65" fill="none" xmlns="http://www.w3.org/2000/svg">
<path d="M22.1271 65C17.811 65 13.979 64.1722 10.6382 62.5165C7.29731 60.8608 4.68273 58.5635 2.81517 55.6315C0.933779 52.6996 0 49.3399 0 45.5525V11.2105C0 10.4033 0.262841 9.74106 0.781607 9.22365C1.30037 8.70624 1.96439 8.44409 2.77367 8.44409C3.58294 8.44409 4.24005 8.70624 4.76573 9.22365C5.2845 9.74796 5.54734 10.4033 5.54734 11.2105V45.5594C5.54734 48.3533 6.24594 50.8093 7.64315 52.941C9.04036 55.0727 10.9978 56.7353 13.5156 57.9426C16.0264 59.1499 18.8969 59.7501 22.1271 59.7501C25.3019 59.7501 28.124 59.1499 30.5934 57.9426C33.0627 56.7353 34.9925 55.0658 36.3897 52.941C37.7869 50.8093 38.4855 48.3533 38.4855 45.5594V11.2105C38.4855 10.4033 38.7484 9.74106 39.2671 9.22365C39.7859 8.70624 40.4499 8.44409 41.2592 8.44409C42.11 8.44409 42.7878 8.70624 43.2858 9.22365C43.7839 9.74796 44.0329 10.4033 44.0329 11.2105V45.5594C44.0329 49.3468 43.0922 52.7065 41.2246 55.6384C39.3501 58.5704 36.7632 60.8677 33.4708 62.5234C30.1783 64.1722 26.3948 65 22.1271 65Z" fill="#F0EDEC"/>
<path d="M60.3359 63.8617C59.4852 63.8617 58.8073 63.6134 58.3093 63.1167C57.8113 62.6199 57.5623 61.9715 57.5623 61.1643V27.8158C57.5623 26.9672 57.8113 26.2911 58.3093 25.7944C58.8073 25.2977 59.4852 25.0494 60.3359 25.0494C61.1452 25.0494 61.7954 25.2977 62.2934 25.7944C62.7914 26.2911 63.0404 26.9672 63.0404 27.8158V61.1712C63.0404 61.9784 62.7914 62.6269 62.2934 63.1236C61.7954 63.6203 61.1383 63.8617 60.3359 63.8617ZM90.9293 63.8617C90.12 63.8617 89.456 63.5996 88.9372 63.0822C88.4115 62.5648 88.1556 61.9232 88.1556 61.1643V42.7171C88.1556 39.7851 87.5954 37.3705 86.4817 35.4803C85.3681 33.59 83.8464 32.1689 81.9304 31.2237C80.0075 30.2786 77.8426 29.8026 75.4216 29.8026C73.0976 29.8026 70.9948 30.251 69.1273 31.1479C67.2528 32.0447 65.7726 33.2796 64.6797 34.8387C63.5869 36.3978 63.0404 38.1708 63.0404 40.1576H59.1255C59.2223 37.1774 60.0247 34.5144 61.5464 32.1758C63.0612 29.8371 65.0809 27.9882 67.5917 26.643C70.1026 25.2977 72.9039 24.6216 75.9888 24.6216C79.3573 24.6216 82.3662 25.3184 85.0223 26.712C87.6784 28.1055 89.7742 30.1544 91.3166 32.8518C92.8591 35.5493 93.6269 38.84 93.6269 42.7171V61.1643C93.6269 61.9232 93.364 62.5579 92.8453 63.0822C92.3265 63.6065 91.6902 63.8617 90.9293 63.8617Z" fill="#F0EDEC"/>
<path d="M109.57 17.6677C108.526 17.6677 107.627 17.2883 106.866 16.5294C106.105 15.7705 105.724 14.853 105.724 13.763C105.724 12.5833 106.119 11.6451 106.9 10.9621C107.682 10.2791 108.595 9.9342 109.639 9.9342C110.635 9.9342 111.528 10.2791 112.309 10.9621C113.091 11.6451 113.485 12.5833 113.485 13.763C113.485 14.853 113.105 15.7774 112.344 16.5294C111.583 17.2883 110.663 17.6677 109.57 17.6677ZM109.639 63.8617C108.789 63.8617 108.111 63.6134 107.613 63.1166C107.115 62.6199 106.866 61.9439 106.866 61.0953V27.8158C106.866 26.9672 107.115 26.2911 107.613 25.7944C108.111 25.2977 108.789 25.0494 109.639 25.0494C110.449 25.0494 111.099 25.2977 111.597 25.7944C112.095 26.2911 112.344 26.9672 112.344 27.8158V61.0953C112.344 61.9439 112.095 62.6199 111.597 63.1166C111.099 63.6134 110.449 63.8617 109.639 63.8617Z" fill="#F0EDEC"/>
<path d="M195.305 63.8617C194.496 63.8617 193.832 63.5996 193.313 63.0822C192.787 62.5648 192.531 61.9025 192.531 61.0953V11.2105C192.531 10.4033 192.794 9.74106 193.313 9.22365C193.832 8.70624 194.496 8.44409 195.305 8.44409C196.156 8.44409 196.868 8.77523 197.442 9.43751L231.453 54.0034V11.2105C231.453 10.4033 231.715 9.74106 232.234 9.22365C232.753 8.70624 233.417 8.44409 234.226 8.44409C234.987 8.44409 235.637 8.70624 236.184 9.22365C236.73 9.74796 237 10.4033 237 11.2105V61.0953C237 61.9025 236.723 62.5648 236.184 63.0822C235.637 63.6065 234.987 63.8617 234.226 63.8617C233.846 63.8617 233.465 63.7927 233.085 63.6479C232.705 63.503 232.4 63.2684 232.158 62.9373L198.079 18.3714V61.0884C198.079 61.8956 197.802 62.5579 197.263 63.0753C196.716 63.6065 196.059 63.8617 195.305 63.8617Z" fill="#F0EDEC"/>
<path d="M178.974 24.8355C177.577 21.3792 175.592 18.3782 173.033 15.8257C170.473 13.2732 167.458 11.2863 163.999 9.86518C163.1 9.49955 162.187 9.18221 161.246 8.90626V14.5149C161.426 14.5839 161.613 14.6529 161.793 14.7219C164.594 15.8809 167.022 17.5159 169.083 19.62C171.144 21.7241 172.749 24.187 173.883 27.0017C175.025 29.8164 175.592 32.8587 175.592 36.1218C175.592 39.4332 175.025 42.4963 173.883 45.3109C172.742 48.1256 171.144 50.5885 169.083 52.6926C167.022 54.7967 164.587 56.4317 161.793 57.5907C158.991 58.7497 155.962 59.3292 152.683 59.3292C149.363 59.3292 146.306 58.7497 143.505 57.5907C140.703 56.4317 138.275 54.8036 136.214 52.6926C134.153 50.5885 132.548 48.1256 131.414 45.3109C130.273 42.4963 129.705 39.4332 129.705 36.1218C129.705 32.8587 130.273 29.8164 131.414 27.0017C132.555 24.187 134.153 21.7241 136.214 19.62C138.275 17.5159 140.71 15.8809 143.505 14.7219C143.705 14.6391 143.913 14.5632 144.12 14.4873V8.88556C143.159 9.16151 142.218 9.48575 141.298 9.85828C137.833 11.2794 134.838 13.2663 132.299 15.8188C129.761 18.3713 127.789 21.3792 126.392 24.8286C124.995 28.2848 124.296 32.0447 124.296 36.1149C124.296 40.2335 124.995 44.014 126.392 47.4703C127.789 50.9265 129.761 53.9275 132.299 56.48C134.838 59.0326 137.84 61.0194 141.298 62.4405C144.756 63.8617 148.554 64.5723 152.683 64.5723C156.764 64.5723 160.534 63.8617 163.999 62.4405C167.465 61.0194 170.473 59.0326 173.033 56.48C175.592 53.9275 177.577 50.9196 178.974 47.4703C180.371 44.0209 181.07 40.2335 181.07 36.1149C181.077 32.0516 180.371 28.2848 178.974 24.8355Z" fill="#F0EDEC"/>
<path d="M152.718 38.8193C151.867 38.8193 151.189 38.5709 150.691 38.0742C150.193 37.5775 149.944 36.9014 149.944 36.0529V2.7664C149.944 1.91785 150.193 1.24177 150.691 0.745065C151.189 0.248355 151.867 0 152.718 0C153.527 0 154.177 0.248355 154.675 0.745065C155.173 1.24177 155.422 1.91785 155.422 2.7664V36.046C155.422 36.8945 155.173 37.5706 154.675 38.0673C154.177 38.564 153.527 38.8193 152.718 38.8193Z" fill="#F0EDEC"/>
</svg>